<?xml version="1.0" encoding="utf-8"?>
<!-- Generator: Adobe Illustrator 28.0.0, SVG Export Plug-In . SVG Version: 6.00 Build 0)  -->
<svg version="1.1" id="Calque_1" xmlns="http://www.w3.org/2000/svg" xmlns:xlink="http://www.w3.org/1999/xlink" x="0px" y="0px"
	 viewBox="0 0 36 34" style="enable-background:new 0 0 36 34;" xml:space="preserve">
<style type="text/css">
	.st0{fill-opacity:0.1;}
	.st1{fill:#FFFFFF;}
	.st2{fill-rule:evenodd;clip-rule:evenodd;}
</style>
<path class="st0" d="M-746-480h3096v-2H-746V-480z M2351-479v2082h2V-479H2351z M2350,1604H-746v2h3096V1604z M-747,1603V-479h-2
	v2082H-747z M-746,1604c-0.6,0-1-0.4-1-1h-2c0,1.7,1.3,3,3,3V1604z M2351,1603c0,0.6-0.4,1-1,1v2c1.7,0,3-1.3,3-3H2351z M2350-480
	c0.6,0,1,0.4,1,1h2c0-1.7-1.3-3-3-3V-480z M-746-482c-1.7,0-3,1.3-3,3h2c0-0.6,0.4-1,1-1V-482z"/>
<path class="st1" d="M35.8,16.8c0,9.3-7.8,16.8-17.5,16.8c-9.6,0-17.5-7.5-17.5-16.8C0.9,7.5,8.7,0,18.3,0C28,0,35.8,7.5,35.8,16.8z
	"/>
<path class="st2" d="M18.3,31.1c8.3,0,14.9-6.5,14.9-14.3c0-7.8-6.6-14.3-14.9-14.3C10,2.5,3.4,9,3.4,16.8
	C3.4,24.6,10,31.1,18.3,31.1z M18.3,33.6c9.6,0,17.5-7.5,17.5-16.8C35.8,7.5,28,0,18.3,0C8.7,0,0.9,7.5,0.9,16.8
	C0.9,26.1,8.7,33.6,18.3,33.6z"/>
<path class="st1" d="M30.1,16.8c0,6.5-5.3,11.7-11.7,11.7c-6.5,0-11.7-5.3-11.7-11.7c0-6.5,5.3-11.7,11.7-11.7
	C24.8,5.1,30.1,10.3,30.1,16.8z"/>
<path class="st2" d="M18.3,26c5.1,0,9.2-4.1,9.2-9.2c0-5.1-4.1-9.2-9.2-9.2s-9.2,4.1-9.2,9.2C9.1,21.9,13.2,26,18.3,26z M18.3,28.6
	c6.5,0,11.7-5.3,11.7-11.7c0-6.5-5.3-11.7-11.7-11.7c-6.5,0-11.7,5.3-11.7,11.7C6.6,23.3,11.8,28.6,18.3,28.6z"/>
</svg>
